<svg xmlns="http://www.w3.org/2000/svg" width="40" height="40" fill="none" viewBox="0 0 40 40"><rect width="40" height="40" fill="#fff"/><rect width="14" height="14" x="23" y="23" fill="#fff" stroke="#1A192B" stroke-width="2" rx="2"/><rect width="14" height="14" x="23" y="3" fill="#fff" stroke="#FF0072" stroke-width="2" rx="2"/><rect width="14" height="14" x="3" y="23" fill="#fff" stroke="#1A192B" stroke-width="2" rx="2"/><rect width="14" height="14" x="3" y="3" fill="#fff" stroke="#1A192B" stroke-width="2" rx="2"/><circle cx="17" cy="10" r="3" fill="#fff"/><circle cx="23" cy="10" r="3" fill="#fff"/><circle cx="30" cy="17" r="3" fill="#fff"/><circle cx="30" cy="23" r="3" fill="#fff"/><circle cx="17" cy="30" r="3" fill="#fff"/><circle cx="23" cy="30" r="3" fill="#fff"/><circle cx="30" cy="23" r="2" fill="#1A192B"/><circle cx="17" cy="30" r="2" fill="#1A192B"/><circle cx="23" cy="30" r="2" fill="#1A192B"/><rect width="4" height="1" x="18" y="9.5" fill="#1A192B" opacity=".35"/><rect width="4" height="1" x="29.5" y="21.5" fill="#1A192B" opacity=".35" transform="rotate(-90 29.5 21.5)"/><rect width="4" height="1" x="18" y="29.5" fill="#1A192B" opacity=".35"/><circle cx="17" cy="10" r="2" fill="#1A192B"/><circle cx="23" cy="10" r="2" fill="#FF0072"/><circle cx="30" cy="17" r="2" fill="#FF0072"/></svg>